<?xml version="1.0" encoding="utf-8"?>
<!-- Generator: Adobe Illustrator 19.0.0, SVG Export Plug-In . SVG Version: 6.00 Build 0)  -->
<svg version="1.1" id="Layer_1" xmlns="http://www.w3.org/2000/svg" xmlns:xlink="http://www.w3.org/1999/xlink" x="0px" y="0px"
	 viewBox="0 0 142 141.5" style="enable-background:new 0 0 142 141.5;" xml:space="preserve">
<style type="text/css">
	.st0{opacity:0.5;fill:#00DAF2;}
	.st1{fill:#00DAF2;}
	.st2{fill:#FFFFFF;}
</style>
<circle class="st0" cx="71.5" cy="70.5" r="68.1"/>
<circle class="st1" cx="71.5" cy="70.5" r="61.1"/>
<g>
	<path class="st2" d="M48.9,68.1c0.9,0.9,1.3,2.1,1.3,3.7c0,1.6-0.4,2.8-1.3,3.7s-2.1,1.3-3.7,1.3h-3.3v-4.6h-1.3v-0.9h1.3v-4.5h3.3
		C46.8,66.8,48,67.3,48.9,68.1z M48,74.8c0.7-0.7,1-1.7,1-3c0-2.7-1.3-4-3.9-4H43v3.5h2.7v0.9H43v3.6h2.1
		C46.4,75.8,47.4,75.5,48,74.8z"/>
	<path class="st2" d="M59.7,76.8l-1.1-2.6h-5.2l-1.1,2.6h-1.2l4.4-10h1l4.4,10H59.7z M54.6,65.5c-0.4-0.2-0.7-0.6-0.9-1.1l0.7-0.3
		c0.2,0.4,0.4,0.6,0.7,0.8c0.3,0.1,0.6,0.2,0.9,0.2c0.3,0,0.6-0.1,0.9-0.2c0.2-0.1,0.5-0.4,0.7-0.8l0.7,0.3
		c-0.2,0.5-0.5,0.9-0.9,1.1c-0.4,0.2-0.9,0.4-1.4,0.4C55.4,65.8,55,65.7,54.6,65.5z M53.8,73.3h4.4L56,68.2L53.8,73.3z"/>
	<path class="st2" d="M69.2,66.8h1.1v10h-0.9l-6-8v8h-1.1v-10h0.9l6,8V66.8z"/>
	<path class="st2" d="M80.7,71.6v4.6c-0.4,0.2-0.9,0.4-1.5,0.5s-1.3,0.2-1.9,0.2c-1,0-1.8-0.2-2.6-0.6s-1.3-1-1.6-1.8
		c-0.4-0.8-0.6-1.7-0.6-2.7c0-1.1,0.2-2,0.6-2.7c0.4-0.8,0.9-1.3,1.6-1.8c0.7-0.4,1.5-0.6,2.5-0.6c0.7,0,1.3,0.1,1.9,0.3
		c0.6,0.2,1.1,0.5,1.5,0.9l-0.4,0.9c-0.5-0.4-1-0.7-1.4-0.9c-0.5-0.2-1-0.3-1.6-0.3c-1.1,0-2,0.4-2.6,1.1c-0.6,0.7-0.9,1.7-0.9,3
		c0,1.4,0.3,2.4,0.9,3.1c0.6,0.7,1.5,1.1,2.7,1.1c0.8,0,1.6-0.1,2.4-0.4v-3h-2.5v-0.9H80.7z"/>
	<path class="st2" d="M94.5,76.8H93l-5.1-4.7v4.7h-1.1v-10h1.1v4.6l4.9-4.6h1.5L89,71.7L94.5,76.8z"/>
	<path class="st2" d="M102.9,66.8L99,72.8v4h-1.1v-4l-3.9-5.9h1.3l3.2,4.9l3.2-4.9H102.9z M98.8,66H98l1.4-2.1h1.2L98.8,66z"/>
	<path class="st2" d="M26.6,88.5l3.8,5.1H29l-3.1-4.2l-3.1,4.2h-1.4l3.8-5.1l-3.6-4.9H23l2.9,4l2.9-4h1.4L26.6,88.5z"/>
	<path class="st2" d="M31.7,93.6v-10H38v1h-5.2v3.5h4.9v1h-4.9v3.6H38v1H31.7z"/>
	<path class="st2" d="M48.4,83.6h1v10h-1.1v-7.4l-3.2,7.4h-0.8L41,86.3l0,7.3H40v-10h1l3.8,8.6L48.4,83.6z"/>
	<path class="st2" d="M62.4,83.6h1.1v10h-0.9l-6-8v8h-1.1v-10h0.9l6,8V83.6z"/>
	<path class="st2" d="M73.1,83.6h1.1v10h-1.1V89h-6v4.6h-1.1v-10h1.1v4.4h6V83.6z"/>
	<path class="st2" d="M84.3,93.6L83.2,91H78l-1.1,2.6h-1.2l4.4-10h1l4.4,10H84.3z M80.2,82.8l-1.9-2.1h1.2l1.4,2.1H80.2z M78.4,90.1
		h4.4L80.6,85L78.4,90.1z"/>
	<path class="st2" d="M99.1,83.6h1v10H99v-7.4l-3.2,7.4h-0.8l-3.3-7.3l0,7.3h-1.1v-10h1l3.8,8.6L99.1,83.6z"/>
	<path class="st2" d="M110.1,93.6L109,91h-5.2l-1.1,2.6h-1.2l4.4-10h1l4.4,10H110.1z M104.5,79.5c0.2-0.3,0.5-0.4,0.9-0.4
		c0.2,0,0.4,0,0.6,0.1c0.2,0.1,0.4,0.1,0.6,0.3c0.1,0.1,0.3,0.1,0.4,0.2c0.1,0.1,0.3,0.1,0.4,0.1c0.2,0,0.4-0.1,0.5-0.2
		c0.1-0.1,0.2-0.3,0.2-0.4h0.6c0,0.4-0.1,0.7-0.4,1c-0.2,0.3-0.5,0.4-0.9,0.4c-0.2,0-0.4,0-0.6-0.1s-0.4-0.1-0.6-0.3
		c-0.2-0.1-0.3-0.2-0.5-0.2s-0.2-0.1-0.4-0.1c-0.2,0-0.4,0.1-0.5,0.2c-0.1,0.1-0.2,0.3-0.2,0.4h-0.6
		C104.1,80.1,104.2,79.8,104.5,79.5z M104.2,90.1h4.4l-2.2-5.1L104.2,90.1z M105.4,82.8h-1l1.7-2.1h0.8l1.7,2.1h-1l-1-1.4
		L105.4,82.8z"/>
	<path class="st2" d="M113.6,92.7c-0.7-0.7-1-1.7-1-3v-6.1h1.1v6.2c0,1,0.2,1.7,0.7,2.2c0.5,0.5,1.2,0.7,2.1,0.7
		c0.9,0,1.6-0.2,2.1-0.7c0.5-0.5,0.7-1.2,0.7-2.2v-6.2h1.1v6.1c0,1.3-0.3,2.3-1,3c-0.7,0.7-1.7,1-2.9,1
		C115.3,93.7,114.3,93.4,113.6,92.7z"/>
</g>
<g>
	<path class="st2" d="M65.6,37.1h10.9c0.4,0,0.8-0.4,0.8-0.8c0-0.4-0.3-0.8-0.8-0.8H65.6c-0.4,0-0.8,0.4-0.8,0.8
		C64.8,36.8,65.1,37.1,65.6,37.1L65.6,37.1z M65.6,37.1"/>
	<path class="st2" d="M65.6,39.8h10.9c0.4,0,0.8-0.4,0.8-0.8c0-0.4-0.3-0.8-0.8-0.8H65.6c-0.4,0-0.8,0.3-0.8,0.8
		C64.8,39.5,65.1,39.8,65.6,39.8L65.6,39.8z M65.6,39.8"/>
	<path class="st2" d="M71.3,49h-5.8c-0.4,0-0.8,0.4-0.8,0.8c0,0.4,0.4,0.8,0.8,0.8h5.8c0.4,0,0.8-0.3,0.8-0.8
		C72.1,49.4,71.8,49,71.3,49L71.3,49z M71.3,49"/>
	<path class="st2" d="M87.6,31.4L85.3,30c-0.2-0.1-0.4-0.1-0.6-0.1c-0.2,0.1-0.4,0.2-0.5,0.4l-4,6.7v-4.7c0-0.4-0.4-0.8-0.8-0.8
		H61.9c-0.4,0-0.8,0.3-0.8,0.8v22c0,0.4,0.4,0.8,0.8,0.8h17.5c0.4,0,0.8-0.4,0.8-0.8v-9.1l7.6-12.7C88,32.1,87.9,31.6,87.6,31.4
		L87.6,31.4z M77.5,46.7l-1.3,1.1l0.3-1.7L84,33.6l1,0.6L77.5,46.7z M85.8,32.9l-1-0.6l0.3-0.5l1,0.6L85.8,32.9z M62.7,53.5V33h15.9
		v6.6l-1.4,2.3c0,0,0-0.1,0-0.1c0-0.4-0.3-0.8-0.8-0.8H65.6c-0.4,0-0.8,0.4-0.8,0.8c0,0.4,0.4,0.8,0.8,0.8h10.9
		c0.2,0,0.3-0.1,0.5-0.2l-0.8,1.3H65.6c-0.4,0-0.8,0.4-0.8,0.8c0,0.4,0.4,0.8,0.8,0.8h9.7l-0.1,0.2c0,0.1-0.1,0.2-0.1,0.2l-0.1,0.7
		h-9.3c-0.4,0-0.8,0.4-0.8,0.8c0,0.4,0.4,0.8,0.8,0.8h9l-0.4,1.7c-0.1,0.3,0.1,0.7,0.4,0.8c0.1,0.1,0.3,0.1,0.4,0.1
		c0.2,0,0.4-0.1,0.5-0.2l3.1-2.6c0,0,0,0,0.1-0.1v5.7H62.7z M62.7,53.5"/>
</g>
</svg>
